<?xml version="1.0" encoding="utf-8"?>
<!-- Generator: Adobe Illustrator 16.0.3, SVG Export Plug-In . SVG Version: 6.00 Build 0)  -->
<svg version="1.2" baseProfile="tiny" xmlns="http://www.w3.org/2000/svg" xmlns:xlink="http://www.w3.org/1999/xlink" x="0px"
	 y="0px" width="50px" height="50px" viewBox="0 0 50 50" xml:space="preserve">
<g id="Ebene_1" display="none">
	<path display="inline" fill="#3C3C3C" d="M0.706,24.02L19.338,4.854c0,0,2.218-2.341,2.218,0.198c0,2.54,0,8.691,0,8.691
		s1.492,0,3.786,0c6.564,0,18.483,0,23.34,0c0,0,1.318-0.345,1.318,1.658c0,2.002,0,18.267,0,19.703c0,1.438-1.1,1.395-1.1,1.395
		c-4.731,0-17.063,0-23.39,0c-2.069,0-3.412,0-3.412,0s0,4.931,0,8.029c0,3.087-2.301,0.758-2.301,0.758S2.375,28.42,0.559,26.608
		C-0.779,25.27,0.706,24.02,0.706,24.02z"/>
</g>
<g id="Ebene_2">
	<g>
		<path fill="#3C3C3C" d="M28.734,21.412c0,0-6.021,1.845-7.176,3c-1.155,1.15-1.155,3.019,0,4.174c1.154,1.152,3.023,1.152,4.174,0
			C26.887,27.431,28.734,21.412,28.734,21.412z"/>
		<g>
			<path fill="#3C3C3C" d="M36.756,15.014l3.092,3.095l2.652-2.654c0,0-1.76-4.389-7.957-7.955l-2.652,2.652l3.096,3.092l0,0v0.002
				l-0.67,0.671c-2.844-2.437-6.528-3.917-10.566-3.917c-8.975,0-16.25,7.272-16.25,16.25c0,8.974,7.275,16.248,16.25,16.248
				C32.725,42.5,40,35.226,40,26.252c0-4.04-1.481-7.725-3.916-10.566L36.756,15.014z M36.008,26.525
				c-0.002,0.013-0.004,0.027-0.004,0.043h0.234c-0.131,2.888-1.25,5.593-3.199,7.726l-0.146-0.146
				c-0.03,0.034-0.057,0.071-0.087,0.104l-2.219-2.216l-0.693,0.696l2.354,2.354c-2.137,1.948-4.838,3.07-7.729,3.2v-0.061
				c-0.079,0.006-0.152,0.014-0.231,0.018v-3.285h-0.887v3.328c-0.44-0.02-0.873-0.07-1.303-0.136
				c-2.484-0.325-4.787-1.396-6.658-3.104l2.358-2.356l-0.658-0.653l-2.26,2.261c-0.042-0.051-0.079-0.102-0.126-0.148l-0.105,0.108
				c-2.005-2.196-3.072-4.941-3.198-7.73h3.33v-1.077h-3.099c0-0.012,0.002-0.028,0.002-0.04h-0.233
				c0.126-2.789,1.193-5.534,3.2-7.729l0.144,0.146c0.033-0.035,0.057-0.071,0.089-0.105l2.216,2.222l0.698-0.698l-2.356-2.354
				c2.135-1.95,4.842-3.07,7.729-3.198v0.061c0.075-0.006,0.154-0.016,0.229-0.021v3.286h0.887v-3.326
				c0.44,0.018,0.875,0.071,1.305,0.136c2.483,0.327,4.784,1.398,6.653,3.104l-2.352,2.352l0.655,0.658l2.257-2.261
				c0.045,0.049,0.081,0.102,0.121,0.15l0.111-0.11c1.949,2.135,3.068,4.837,3.199,7.727h-3.33v1.077H36.008z"/>
		</g>
	</g>
</g>
</svg>
